<mxfile host="app.diagrams.net" modified="2023-08-29T15:47:26.936Z" agent="Mozilla/5.0 (Windows NT 10.0; Win64; x64) AppleWebKit/537.36 (KHTML, like Gecko) Chrome/116.0.0.0 Safari/537.36" version="21.6.6" etag="i745Y9QC_hHeAJpXGISP" type="github">
  <diagram name="Страница 1" id="c-2m8o7hHPOMHzhFaEAo">
    <mxGraphModel>
      <root>
        <mxCell id="0" />
        <mxCell id="1" parent="0" />
      </root>
    </mxGraphModel>
  </diagram>
</mxfile>
